# xmcd
#
# Track frame offsets:
#	150
#	19196
#	82116
#	113336
#	141796
#	161154
#	183951
#	220044
#	241222
#
# Disc length: 3396 seconds
#
# Revision: 1
# Processed by: cddbd v1.4PL0 Copyright (c) Steve Scherf et al.
# Submitted via: EasyCDDAExtractor 4.6.0.1
#
DISCID=6f0d4209
DTITLE=Stan the man´s Bohemian Blues - Live - sound like yoz´re having a good 
DTITLE=time.
DYEAR=2000
DGENRE=Blues
TTITLE0=My babe
TTITLE1=Smack dab in the middle
TTITLE2=The sun is shining
TTITLE3=I don't need no doctor
TTITLE4=I can't sleep
TTITLE5=Going down
TTITLE6=I put a spell on you
TTITLE7=Big boss man
TTITLE8=Hound dog
EXTD=
EXTT0=
EXTT1=
EXTT2=
EXTT3=
EXTT4=
EXTT5=
EXTT6=
EXTT7=
EXTT8=
PLAYORDER=
